<svg id="svg" xmlns="http://www.w3.org/2000/svg" xmlns:xlink="http://www.w3.org/1999/xlink" width="400" height="400" viewBox="0, 0, 400,400"><g id="svgg"><path id="path0" d="M73.006 40.431 C 73.166 40.935,73.059 40.999,72.254 40.881 C 71.502 40.770,71.351 40.840,71.497 41.231 C 71.651 41.643,71.602 41.656,71.177 41.310 C 70.742 40.957,70.696 40.986,70.839 41.532 C 70.985 42.089,70.876 42.149,69.888 42.053 C 69.269 41.993,68.525 42.134,68.215 42.369 C 67.908 42.602,67.332 42.797,66.935 42.803 C 66.535 42.808,66.299 42.952,66.406 43.125 C 66.512 43.297,66.293 43.438,65.918 43.438 C 65.371 43.438,65.308 43.524,65.596 43.871 C 65.895 44.232,65.698 44.303,64.432 44.293 C 62.769 44.278,62.062 44.545,62.383 45.064 C 62.518 45.282,62.257 45.348,61.626 45.255 C 60.832 45.139,60.634 45.235,60.490 45.809 C 60.360 46.325,60.151 46.462,59.679 46.338 C 58.990 46.158,57.710 47.081,57.999 47.550 C 58.094 47.703,58.056 47.808,57.914 47.783 C 57.211 47.661,56.825 47.857,56.979 48.258 C 57.073 48.504,56.921 48.890,56.640 49.118 C 56.206 49.469,56.170 49.461,56.397 49.063 C 56.543 48.805,56.316 48.909,55.892 49.295 C 55.326 49.809,55.028 49.903,54.773 49.648 C 54.519 49.394,54.316 49.478,54.013 49.963 C 53.786 50.327,53.414 50.625,53.188 50.625 C 52.961 50.625,52.863 50.766,52.969 50.938 C 53.075 51.109,53.013 51.250,52.831 51.250 C 52.649 51.250,52.490 51.496,52.478 51.797 C 52.459 52.274,52.426 52.266,52.219 51.739 C 51.951 51.054,51.598 51.435,51.732 52.266 C 51.780 52.566,51.668 52.813,51.483 52.813 C 51.298 52.813,50.480 53.526,49.666 54.398 C 48.377 55.778,48.060 55.965,47.227 55.833 C 46.700 55.750,46.282 55.775,46.297 55.888 C 46.407 56.715,46.198 57.148,45.768 56.983 C 45.504 56.881,45.309 56.921,45.337 57.071 C 45.478 57.848,45.267 58.186,44.727 58.045 C 44.264 57.924,44.176 58.024,44.308 58.526 C 44.431 58.996,44.366 59.094,44.059 58.904 C 43.752 58.714,43.699 58.792,43.857 59.202 C 44.015 59.615,43.948 59.711,43.597 59.576 C 43.324 59.471,43.125 59.567,43.125 59.805 C 43.125 60.031,42.844 60.470,42.500 60.781 C 42.156 61.092,41.875 61.249,41.875 61.130 C 41.875 61.011,41.679 61.094,41.439 61.316 C 41.199 61.537,41.081 61.859,41.177 62.031 C 41.272 62.203,41.235 62.240,41.094 62.112 C 40.716 61.769,40.000 62.482,40.000 63.202 C 40.000 63.721,39.850 63.798,39.125 63.653 C 38.469 63.522,38.153 63.633,37.865 64.095 C 37.653 64.434,37.351 64.632,37.194 64.535 C 37.036 64.438,36.961 64.633,37.025 64.969 C 37.114 65.431,36.997 65.552,36.547 65.466 C 36.219 65.403,35.856 65.505,35.740 65.692 C 35.623 65.880,35.667 65.948,35.837 65.843 C 36.007 65.738,36.146 65.844,36.146 66.078 C 36.146 66.312,35.969 66.435,35.753 66.352 C 35.537 66.269,35.069 66.494,34.712 66.851 C 34.355 67.208,34.168 67.502,34.297 67.505 C 34.426 67.507,34.348 67.626,34.125 67.767 C 33.901 67.909,33.678 68.405,33.628 68.869 C 33.579 69.332,33.354 69.882,33.129 70.090 C 32.833 70.365,32.777 70.368,32.928 70.100 C 33.042 69.897,33.021 69.660,32.882 69.574 C 32.667 69.441,32.501 70.228,32.416 71.783 C 32.405 71.990,32.293 72.097,32.168 72.019 C 31.889 71.847,31.563 72.642,31.562 73.496 C 31.562 73.931,31.415 74.073,31.094 73.949 C 30.613 73.765,30.499 74.150,30.615 75.566 C 30.660 76.109,30.533 76.265,30.105 76.191 C 29.649 76.113,29.534 76.300,29.533 77.119 C 29.532 77.683,29.350 78.258,29.127 78.396 C 28.905 78.534,28.616 79.048,28.485 79.538 C 28.354 80.027,28.059 80.491,27.830 80.567 C 27.556 80.658,27.498 80.568,27.661 80.305 C 27.808 80.067,27.784 79.981,27.602 80.093 C 27.433 80.198,27.305 80.852,27.319 81.548 C 27.333 82.243,27.238 82.813,27.109 82.813 C 26.980 82.813,26.875 82.664,26.875 82.482 C 26.875 82.300,26.732 82.239,26.557 82.347 C 26.383 82.455,26.321 82.674,26.420 82.834 C 26.518 82.994,26.415 83.127,26.190 83.130 C 25.891 83.133,25.907 83.221,26.250 83.456 C 26.622 83.711,26.560 83.759,25.952 83.686 C 25.278 83.605,25.183 83.719,25.158 84.639 C 25.141 85.277,24.922 85.800,24.596 85.982 C 24.283 86.158,24.063 86.658,24.063 87.193 C 24.063 87.876,23.944 88.060,23.594 87.926 C 23.336 87.827,23.125 87.797,23.125 87.859 C 23.125 87.922,22.989 88.464,22.823 89.065 C 22.547 90.060,22.560 90.103,22.979 89.550 C 23.231 89.216,23.438 89.093,23.438 89.277 C 23.438 89.790,22.570 90.393,22.180 90.152 C 21.985 90.031,21.859 90.122,21.891 90.359 C 22.048 91.504,21.829 92.258,21.298 92.397 C 20.875 92.508,20.760 92.755,20.869 93.326 C 20.975 93.877,20.824 94.239,20.353 94.569 C 19.987 94.826,19.688 95.291,19.688 95.604 C 19.687 95.917,19.477 96.349,19.219 96.563 C 18.961 96.776,18.750 97.431,18.750 98.018 C 18.750 98.945,18.677 99.045,18.192 98.786 C 17.694 98.519,17.626 98.656,17.566 100.048 C 17.527 100.935,17.296 101.811,17.030 102.077 C 16.714 102.394,16.563 103.183,16.563 104.520 C 16.562 105.959,16.439 106.543,16.109 106.670 C 15.850 106.769,15.708 107.120,15.778 107.484 C 15.846 107.837,15.753 108.125,15.572 108.125 C 15.360 108.125,15.286 108.901,15.364 110.288 C 15.431 111.478,15.377 112.383,15.243 112.301 C 14.845 112.055,14.375 113.679,14.375 115.299 C 14.375 116.352,14.233 116.862,13.906 116.988 C 13.550 117.125,13.436 117.712,13.433 119.443 C 13.429 121.393,12.884 123.738,12.795 122.188 C 12.717 120.816,12.229 123.254,12.209 125.112 C 12.192 126.793,12.095 127.219,11.759 127.090 C 11.168 126.863,11.005 139.499,11.594 139.863 C 11.856 140.025,11.891 139.963,11.707 139.658 C 11.482 139.284,11.521 139.282,11.971 139.648 C 12.262 139.884,12.500 140.270,12.500 140.507 C 12.500 140.744,12.711 140.938,12.969 140.938 C 13.374 140.938,13.628 141.918,13.475 142.891 C 13.454 143.020,13.653 143.125,13.916 143.125 C 14.179 143.125,14.476 143.336,14.574 143.594 C 14.673 143.852,14.950 144.062,15.190 144.063 C 15.431 144.063,15.627 144.375,15.630 144.766 C 15.633 145.270,15.709 145.351,15.899 145.052 C 16.110 144.719,16.203 144.738,16.361 145.150 C 16.480 145.462,16.713 145.572,16.951 145.429 C 17.182 145.290,17.151 145.432,16.875 145.775 C 16.444 146.312,16.459 146.345,17.058 146.191 C 17.604 146.050,17.687 146.141,17.571 146.750 C 17.433 147.470,18.185 148.586,18.557 148.214 C 18.663 148.108,18.750 148.233,18.750 148.493 C 18.750 148.753,19.028 149.217,19.368 149.525 C 19.707 149.832,19.910 150.205,19.818 150.354 C 19.726 150.503,19.948 150.625,20.313 150.625 C 20.677 150.625,20.897 150.750,20.803 150.902 C 20.709 151.054,20.912 151.252,21.254 151.341 C 21.631 151.440,21.875 151.768,21.875 152.177 C 21.875 152.624,22.006 152.776,22.266 152.629 C 22.578 152.452,22.578 152.492,22.266 152.829 C 21.832 153.297,21.748 153.770,22.109 153.713 C 22.747 153.612,23.125 153.794,23.125 154.200 C 23.125 154.448,23.287 154.751,23.486 154.874 C 23.709 155.012,23.762 154.959,23.624 154.736 C 23.501 154.537,23.483 154.375,23.583 154.375 C 23.683 154.375,23.900 154.728,24.063 155.159 C 24.227 155.589,24.540 155.906,24.759 155.862 C 25.021 155.809,25.146 156.134,25.126 156.821 C 25.101 157.678,25.195 157.834,25.662 157.712 C 25.974 157.631,26.217 157.655,26.202 157.766 C 26.102 158.540,26.341 159.013,26.906 159.161 C 27.268 159.256,27.470 159.483,27.357 159.666 C 27.243 159.850,27.288 160.000,27.456 160.000 C 27.623 160.000,27.831 159.824,27.918 159.609 C 28.005 159.395,28.087 159.614,28.100 160.097 C 28.114 160.597,28.259 160.891,28.438 160.781 C 28.609 160.675,28.752 160.772,28.755 160.997 C 28.759 161.317,28.819 161.312,29.033 160.974 C 29.391 160.410,29.742 161.404,29.546 162.424 C 29.424 163.056,29.675 163.275,30.391 163.162 C 30.520 163.142,30.625 163.277,30.625 163.462 C 30.625 163.648,31.285 164.456,32.093 165.259 C 32.900 166.062,33.440 166.521,33.294 166.280 C 33.112 165.979,33.144 165.912,33.394 166.067 C 33.596 166.191,33.677 166.428,33.576 166.592 C 33.240 167.135,33.778 168.806,34.232 168.632 C 34.468 168.541,34.737 168.725,34.838 169.045 C 34.939 169.361,35.316 169.697,35.676 169.791 C 36.112 169.905,36.269 170.126,36.144 170.450 C 36.013 170.793,36.145 170.938,36.591 170.938 C 36.939 170.938,37.147 171.062,37.053 171.214 C 36.959 171.367,37.162 171.565,37.504 171.654 C 37.845 171.743,38.125 172.041,38.125 172.314 C 38.125 172.588,38.272 172.813,38.451 172.813 C 38.630 172.813,39.086 173.101,39.465 173.454 C 39.843 173.807,40.389 174.034,40.678 173.958 C 41.051 173.860,41.149 173.962,41.016 174.308 C 40.872 174.684,40.965 174.744,41.421 174.569 C 41.746 174.444,41.920 174.434,41.807 174.547 C 41.694 174.660,42.156 175.311,42.832 175.994 C 43.509 176.678,44.062 177.437,44.062 177.681 C 44.062 177.925,44.168 178.108,44.297 178.088 C 44.945 177.986,45.257 178.189,45.432 178.828 C 45.593 179.415,45.676 179.454,45.933 179.063 C 46.255 178.572,46.364 178.819,46.261 179.800 C 46.227 180.119,46.334 180.298,46.498 180.196 C 46.662 180.095,47.173 180.361,47.633 180.787 C 48.479 181.572,49.929 181.893,49.501 181.202 C 49.358 180.969,49.416 180.926,49.666 181.081 C 49.880 181.213,49.990 181.568,49.911 181.871 C 49.799 182.296,49.911 182.383,50.401 182.255 C 50.841 182.140,50.964 182.204,50.804 182.463 C 50.666 182.687,50.898 183.094,51.383 183.475 C 51.829 183.826,52.114 184.240,52.018 184.396 C 51.921 184.553,52.042 184.604,52.286 184.510 C 52.559 184.405,52.795 184.588,52.898 184.982 C 53.167 186.009,57.813 185.886,57.813 184.852 C 57.813 184.559,58.608 184.468,60.908 184.495 C 62.610 184.515,63.944 184.435,63.871 184.318 C 63.799 184.201,63.885 184.016,64.063 183.906 C 64.240 183.797,64.326 183.611,64.253 183.494 C 64.181 183.377,67.348 183.321,71.291 183.371 C 75.387 183.422,78.387 183.579,78.288 183.739 C 77.943 184.297,79.644 184.480,85.090 184.470 C 90.199 184.461,90.674 184.507,90.960 185.043 C 91.157 185.410,91.614 185.625,92.198 185.625 C 92.779 185.625,93.125 185.786,93.125 186.057 C 93.125 186.550,94.062 186.864,95.547 186.871 C 96.191 186.873,96.534 187.018,96.484 187.266 C 96.439 187.492,96.801 187.701,97.344 187.761 C 97.859 187.819,98.394 188.065,98.531 188.308 C 98.669 188.551,99.196 188.750,99.703 188.750 C 100.297 188.750,100.625 188.910,100.625 189.200 C 100.625 189.762,101.251 190.179,101.519 189.795 C 102.094 188.974,104.424 189.787,103.905 190.627 C 103.791 190.811,104.179 190.938,104.855 190.938 C 105.724 190.938,106.034 191.083,106.156 191.548 C 106.283 192.035,106.498 192.122,107.220 191.978 C 107.906 191.841,108.125 191.914,108.125 192.280 C 108.125 192.565,108.518 192.849,109.084 192.973 C 109.611 193.089,110.118 193.382,110.211 193.623 C 110.304 193.865,110.498 194.063,110.642 194.063 C 111.047 194.063,112.500 195.496,112.500 195.895 C 112.500 196.090,112.922 196.250,113.438 196.250 C 114.063 196.250,114.375 196.406,114.375 196.719 C 114.375 196.977,114.489 197.188,114.628 197.188 C 114.767 197.188,115.154 197.409,115.487 197.679 C 115.821 197.950,115.883 198.068,115.625 197.942 C 115.349 197.807,115.264 197.830,115.417 197.997 C 115.699 198.305,115.839 198.339,117.050 198.398 C 117.490 198.420,117.767 198.571,117.666 198.734 C 117.565 198.898,117.768 199.184,118.116 199.370 C 118.465 199.557,118.750 199.916,118.750 200.168 C 118.750 200.486,119.033 200.603,119.671 200.548 C 120.177 200.504,120.607 200.609,120.625 200.781 C 120.643 200.953,120.997 201.271,121.412 201.488 C 121.892 201.740,122.098 202.056,121.982 202.361 C 121.881 202.623,121.921 202.816,122.071 202.788 C 122.762 202.662,123.090 202.852,122.926 203.281 C 122.783 203.652,123.021 203.750,124.065 203.750 C 125.345 203.750,125.380 203.776,125.249 204.666 C 125.145 205.376,125.251 205.618,125.722 205.741 C 126.180 205.861,126.293 206.095,126.178 206.693 C 126.067 207.275,126.182 207.535,126.607 207.670 C 127.086 207.822,127.188 208.176,127.188 209.683 C 127.188 211.795,127.391 212.500,128.002 212.500 C 128.334 212.500,128.439 213.040,128.442 214.766 C 128.447 216.951,128.668 217.809,129.254 217.917 C 129.406 217.946,129.527 219.038,129.521 220.345 C 129.514 222.287,129.599 222.714,129.990 222.688 C 130.370 222.663,130.479 223.077,130.516 224.688 C 130.583 227.540,130.574 227.500,131.094 227.301 C 131.482 227.151,131.569 227.514,131.599 229.420 C 131.618 230.684,131.667 231.859,131.707 232.031 C 131.747 232.203,131.801 232.466,131.827 232.616 C 131.854 232.766,132.051 232.743,132.266 232.564 C 132.574 232.307,132.635 232.764,132.554 234.736 C 132.429 237.763,132.590 238.382,133.343 237.770 C 133.803 237.396,133.841 237.414,133.652 237.916 C 133.534 238.231,133.438 238.696,133.438 238.950 C 133.438 239.204,133.307 239.331,133.147 239.233 C 132.988 239.134,132.767 239.339,132.656 239.688 C 132.546 240.036,132.339 240.250,132.198 240.163 C 131.924 239.993,131.562 240.706,131.563 241.416 C 131.563 242.085,130.081 243.525,129.660 243.264 C 129.385 243.095,129.344 243.332,129.502 244.174 C 129.673 245.085,129.619 245.312,129.233 245.313 C 128.967 245.313,128.750 245.461,128.750 245.643 C 128.750 245.825,128.609 245.887,128.438 245.781 C 128.266 245.675,128.125 245.807,128.125 246.075 C 128.125 246.343,127.966 246.527,127.773 246.484 C 127.579 246.441,127.364 246.828,127.294 247.344 C 127.109 248.725,126.938 249.078,126.496 248.987 C 126.236 248.934,126.134 249.200,126.198 249.766 C 126.291 250.596,126.062 250.776,125.078 250.648 C 124.863 250.620,124.688 250.753,124.688 250.942 C 124.688 251.132,124.547 251.200,124.375 251.094 C 124.203 250.988,124.063 251.120,124.063 251.388 C 124.063 251.656,123.868 251.875,123.629 251.875 C 123.387 251.875,123.136 252.286,123.059 252.805 C 122.957 253.503,123.017 253.657,123.298 253.423 C 123.654 253.128,124.203 254.077,124.089 254.789 C 124.066 254.931,124.171 254.970,124.322 254.877 C 124.473 254.783,124.919 255.050,125.312 255.469 C 125.706 255.888,126.113 256.178,126.217 256.113 C 126.321 256.048,126.362 257.520,126.309 259.382 C 126.223 262.363,126.149 262.757,125.684 262.667 C 125.200 262.574,125.164 263.080,125.254 268.716 C 125.347 274.598,125.323 274.893,124.707 275.451 C 124.077 276.022,124.063 276.305,124.063 288.476 C 124.063 298.856,123.992 300.891,123.636 300.754 C 122.925 300.481,122.809 302.100,122.883 311.211 L 122.954 319.844 123.125 310.781 L 123.296 301.719 123.362 310.625 C 123.401 315.965,123.307 319.719,123.125 320.000 C 122.958 320.258,122.820 320.353,122.817 320.212 C 122.815 320.071,122.578 320.189,122.292 320.475 C 121.807 320.960,121.808 321.093,122.296 322.451 C 123.102 324.693,123.167 325.141,123.426 330.179 C 123.560 332.770,123.816 335.164,123.995 335.499 C 124.530 336.498,124.743 338.830,125.004 346.563 C 125.155 351.037,125.437 354.760,125.727 356.092 C 126.051 357.580,126.213 360.190,126.237 364.276 C 126.270 369.947,126.320 370.426,127.153 373.028 C 128.622 377.621,128.988 380.721,129.355 391.719 C 129.504 396.188,129.640 399.879,129.657 399.922 C 129.674 399.965,132.134 400.000,135.124 400.000 L 140.561 400.000 140.538 397.422 C 140.525 396.004,140.546 393.789,140.585 392.500 C 140.624 391.211,140.589 389.694,140.506 389.129 C 140.072 386.174,140.001 364.469,140.418 362.743 C 140.657 361.760,140.804 360.908,140.746 360.850 C 140.688 360.792,140.559 359.558,140.459 358.107 C 140.359 356.656,140.212 354.836,140.132 354.063 C 140.052 353.289,139.907 351.320,139.809 349.688 C 139.712 348.055,139.498 346.156,139.335 345.469 C 139.172 344.781,138.908 342.320,138.748 340.000 C 138.439 335.498,138.300 334.098,137.773 330.156 C 137.589 328.781,137.380 327.164,137.309 326.563 C 137.239 325.961,137.049 324.484,136.887 323.281 C 136.311 318.979,136.483 311.077,137.188 309.531 C 137.762 308.270,137.813 307.493,137.813 299.867 L 137.813 291.574 137.109 291.398 L 136.406 291.222 136.491 278.409 C 136.547 270.016,136.683 265.663,136.887 265.789 C 137.058 265.894,137.118 266.110,137.020 266.268 C 136.922 266.426,137.050 266.476,137.303 266.379 C 137.613 266.259,137.796 266.438,137.866 266.929 C 137.930 267.385,138.181 267.657,138.537 267.659 C 138.957 267.661,140.151 269.079,140.157 269.584 C 140.157 269.613,140.579 269.721,141.094 269.823 C 141.831 269.970,141.898 269.946,141.406 269.714 C 140.835 269.444,140.830 269.417,141.355 269.397 C 141.718 269.383,142.061 269.723,142.286 270.319 C 142.503 270.894,142.804 271.200,143.056 271.104 C 143.284 271.016,143.384 271.084,143.279 271.254 C 143.174 271.423,143.316 271.562,143.594 271.562 C 143.872 271.562,144.018 271.694,143.919 271.855 C 143.808 272.034,144.101 272.043,144.673 271.879 C 145.188 271.731,145.596 271.705,145.580 271.821 C 145.496 272.433,145.667 272.804,146.001 272.734 C 146.356 272.661,146.428 272.818,146.523 273.868 C 146.549 274.149,146.887 274.271,147.500 274.219 C 148.016 274.175,148.438 274.258,148.438 274.403 C 148.438 274.549,148.684 274.576,148.984 274.463 C 149.466 274.282,149.479 274.322,149.096 274.792 C 148.716 275.260,148.726 275.302,149.178 275.129 C 149.562 274.981,149.645 275.060,149.501 275.434 C 149.371 275.773,149.478 275.938,149.829 275.938 C 150.115 275.937,150.277 276.055,150.188 276.198 C 150.100 276.341,150.226 276.458,150.469 276.458 C 150.711 276.458,150.838 276.341,150.749 276.198 C 150.661 276.055,150.878 275.938,151.232 275.938 C 151.585 275.938,151.875 276.086,151.875 276.268 C 151.875 276.450,151.764 276.531,151.628 276.447 C 151.492 276.363,151.434 276.749,151.499 277.305 C 151.576 277.963,151.444 278.460,151.121 278.728 C 150.786 279.006,150.625 279.660,150.625 280.744 C 150.625 282.011,150.493 282.432,150.000 282.740 C 149.403 283.113,149.375 283.469,149.375 290.628 C 149.375 298.694,149.418 298.885,150.944 297.578 C 151.295 297.277,151.649 297.067,151.730 297.111 C 151.811 297.154,152.316 296.803,152.852 296.329 C 153.389 295.856,153.948 295.503,154.096 295.545 C 154.243 295.587,154.449 295.284,154.552 294.871 C 154.656 294.459,155.024 294.047,155.370 293.957 C 155.773 293.851,155.914 293.653,155.761 293.405 C 155.594 293.134,155.681 293.080,156.054 293.223 C 156.403 293.357,156.656 293.240,156.789 292.885 C 156.901 292.587,157.168 292.203,157.383 292.031 C 157.598 291.859,157.818 291.297,157.871 290.781 C 157.942 290.105,158.124 289.856,158.526 289.889 C 158.939 289.922,159.035 289.780,158.896 289.342 C 158.768 288.939,158.859 288.750,159.180 288.750 C 159.440 288.750,159.848 288.470,160.088 288.127 C 160.328 287.784,160.622 287.601,160.741 287.720 C 160.859 287.839,160.917 287.451,160.869 286.859 C 160.794 285.933,160.875 285.786,161.444 285.815 C 161.960 285.842,162.070 285.711,161.941 285.220 C 161.851 284.873,161.904 284.667,162.060 284.762 C 162.216 284.857,162.525 284.738,162.747 284.498 C 162.968 284.259,163.046 284.062,162.919 284.063 C 162.514 284.063,163.411 283.322,163.903 283.250 C 164.218 283.203,164.375 283.444,164.375 283.972 C 164.375 284.553,164.479 284.686,164.766 284.471 C 165.324 284.053,167.500 283.949,167.500 284.341 C 167.500 284.521,167.698 284.592,167.940 284.499 C 168.507 284.281,170.938 285.809,170.938 286.384 C 170.938 286.625,171.086 286.872,171.267 286.933 C 172.180 287.237,172.603 303.449,171.839 308.906 C 171.593 310.666,171.586 311.755,171.815 312.584 C 172.026 313.346,172.037 314.118,171.847 314.772 C 171.686 315.327,171.497 316.647,171.428 317.704 C 171.358 318.762,171.087 320.379,170.826 321.298 C 170.023 324.121,169.591 326.486,169.786 326.994 C 169.888 327.260,169.752 328.291,169.483 329.286 C 168.639 332.404,168.253 335.146,168.499 336.268 C 168.932 338.245,168.160 341.566,166.958 342.893 C 166.602 343.287,166.418 344.131,166.369 345.605 C 166.319 347.079,166.084 348.164,165.612 349.089 C 164.996 350.296,164.564 352.490,164.233 356.094 C 164.170 356.781,163.815 358.539,163.443 360.000 C 163.071 361.461,162.770 363.219,162.774 363.906 C 162.778 364.594,162.583 366.114,162.341 367.285 C 162.094 368.478,161.884 371.430,161.862 374.004 C 161.826 378.368,161.540 380.960,160.943 382.344 C 160.664 382.990,160.221 386.944,160.242 388.594 C 160.254 389.554,160.552 391.070,161.594 395.479 C 161.921 396.859,162.188 398.441,162.188 398.994 L 162.188 400.000 165.897 400.000 L 169.607 400.000 169.781 393.984 C 169.916 389.355,170.108 387.357,170.617 385.313 C 170.981 383.852,171.415 381.531,171.583 380.156 C 171.750 378.781,172.047 377.168,172.241 376.572 C 172.460 375.899,172.610 372.517,172.636 367.665 C 172.672 360.878,172.755 359.616,173.268 358.125 C 173.593 357.180,173.823 356.145,173.779 355.825 C 173.729 355.463,173.831 355.326,174.050 355.461 C 174.291 355.610,174.337 355.427,174.197 354.870 C 174.072 354.369,174.125 354.063,174.338 354.063 C 174.576 354.063,174.626 353.041,174.503 350.703 C 174.170 344.399,174.238 342.073,174.808 340.332 C 175.106 339.420,175.257 338.445,175.142 338.165 C 174.466 336.507,174.933 330.354,175.700 330.827 C 175.890 330.945,175.944 330.888,175.823 330.693 C 175.575 330.291,176.085 327.806,176.472 327.533 C 176.619 327.429,176.726 327.133,176.710 326.875 C 176.694 326.617,176.786 326.261,176.915 326.084 C 177.045 325.907,177.217 325.415,177.297 324.990 C 177.378 324.566,177.517 324.008,177.605 323.750 C 177.694 323.492,177.850 322.197,177.953 320.872 C 178.056 319.547,178.432 316.945,178.789 315.091 C 179.146 313.236,179.554 310.102,179.696 308.125 C 179.999 303.915,180.342 302.391,181.552 299.869 C 182.238 298.440,182.378 297.844,182.160 297.271 C 181.195 294.732,181.568 290.923,182.929 289.425 C 184.220 288.004,189.063 286.702,189.063 287.776 C 189.063 287.944,189.449 288.031,189.922 287.969 C 190.395 287.907,190.781 287.828,190.781 287.794 C 190.781 287.180,204.515 287.082,205.686 287.688 C 206.358 288.035,207.070 288.126,208.086 287.993 C 208.881 287.889,209.848 287.770,210.234 287.730 C 210.621 287.689,210.938 287.544,210.938 287.408 C 210.938 287.083,213.249 287.508,213.385 287.857 C 213.443 288.005,213.688 288.125,213.930 288.125 C 214.172 288.125,214.743 288.543,215.198 289.054 C 215.653 289.565,216.128 289.919,216.254 289.841 C 216.616 289.617,217.498 292.241,217.519 293.604 C 217.529 294.286,217.637 295.477,217.759 296.250 C 217.881 297.023,217.906 298.148,217.815 298.750 C 217.704 299.486,217.941 300.714,218.537 302.500 C 220.174 307.398,221.056 320.199,220.001 323.728 C 219.868 324.170,219.576 325.164,219.350 325.938 C 219.124 326.711,218.771 327.625,218.566 327.969 C 218.360 328.313,218.109 330.000,218.008 331.719 C 217.906 333.438,217.683 335.406,217.513 336.094 C 217.026 338.056,217.124 343.369,217.681 345.156 C 218.092 346.476,218.609 349.615,218.815 352.031 C 218.844 352.375,218.954 352.727,219.060 352.813 C 219.165 352.898,219.496 353.953,219.794 355.156 C 220.093 356.359,220.407 357.625,220.492 357.969 C 221.122 360.509,221.285 362.296,221.077 364.375 C 220.691 368.224,220.739 368.910,221.562 371.406 C 221.744 371.957,221.983 372.745,222.093 373.157 C 222.203 373.569,222.375 378.266,222.475 383.594 C 222.575 388.922,222.776 393.467,222.923 393.695 C 223.070 393.922,223.281 395.398,223.392 396.976 L 223.594 399.844 226.953 399.932 L 230.313 400.021 230.320 395.089 C 230.351 373.970,230.259 365.626,229.983 364.531 C 229.516 362.672,229.273 349.208,229.621 344.444 C 229.862 341.148,229.832 339.830,229.479 338.038 C 228.383 332.481,228.333 317.709,229.385 310.469 C 230.027 306.053,230.196 300.301,229.756 297.822 C 229.161 294.464,229.392 286.534,230.135 284.844 C 230.590 283.808,232.500 281.560,232.500 282.060 C 232.500 282.142,232.764 282.068,233.086 281.896 C 233.851 281.486,236.563 281.235,236.563 281.574 C 236.563 281.718,236.809 281.845,237.109 281.857 C 238.883 281.923,239.375 282.043,239.375 282.406 C 239.375 282.630,239.480 282.777,239.609 282.734 C 239.738 282.691,239.865 282.775,239.891 282.920 C 239.918 283.065,240.286 283.557,240.710 284.014 C 242.150 285.563,242.460 286.401,242.984 290.156 C 243.272 292.219,243.584 294.117,243.678 294.375 C 243.772 294.633,243.827 294.949,243.800 295.078 C 243.772 295.207,243.891 295.313,244.062 295.313 C 244.234 295.313,244.375 295.657,244.375 296.078 C 244.375 296.499,244.617 296.979,244.912 297.145 C 245.311 297.368,245.425 297.773,245.357 298.723 C 245.289 299.659,245.397 300.052,245.757 300.190 C 246.028 300.294,246.250 300.617,246.250 300.908 C 246.250 301.199,246.426 301.627,246.641 301.858 C 246.958 302.201,246.944 302.229,246.563 302.011 C 246.305 301.863,246.445 302.173,246.875 302.698 C 247.355 303.286,247.740 303.526,247.874 303.320 C 247.994 303.136,247.943 302.893,247.761 302.780 C 247.537 302.642,247.550 302.535,247.803 302.451 C 248.009 302.383,248.283 301.424,248.413 300.321 C 248.543 299.217,248.813 298.260,249.012 298.194 C 249.252 298.114,249.375 297.116,249.375 295.258 C 249.375 292.890,249.477 292.313,250.018 291.625 C 250.562 290.934,250.651 290.416,250.599 288.257 C 250.538 285.703,250.727 284.833,251.272 285.170 C 251.447 285.278,251.563 283.035,251.563 279.511 C 251.563 274.067,251.598 273.702,252.091 274.102 C 252.382 274.338,252.522 274.368,252.403 274.169 C 252.057 273.592,252.497 272.848,253.114 272.967 C 253.546 273.050,253.640 272.927,253.514 272.447 C 253.370 271.895,253.479 271.832,254.409 271.925 C 255.180 272.002,255.468 271.907,255.468 271.572 C 255.469 271.319,255.763 270.965,256.123 270.786 C 256.490 270.603,256.741 270.214,256.695 269.900 C 256.630 269.457,256.702 269.415,257.044 269.698 C 257.390 269.985,257.450 269.929,257.350 269.409 C 257.282 269.054,257.323 268.782,257.441 268.806 C 257.896 268.897,258.750 268.352,258.750 267.970 C 258.750 267.750,258.953 267.589,259.200 267.613 C 259.448 267.637,259.669 267.516,259.691 267.344 C 259.758 266.829,260.690 265.938,261.161 265.938 C 261.402 265.938,261.522 265.813,261.428 265.660 C 261.334 265.508,261.465 265.211,261.719 265.000 C 261.973 264.789,262.116 264.512,262.037 264.385 C 261.958 264.257,262.241 264.219,262.666 264.300 C 263.161 264.395,263.438 264.659,263.438 265.036 C 263.438 265.360,263.578 265.625,263.750 265.625 C 263.922 265.625,264.063 265.461,264.063 265.260 C 264.063 265.060,264.148 264.981,264.252 265.085 C 264.356 265.190,264.443 266.584,264.444 268.184 C 264.445 269.785,264.509 270.926,264.587 270.721 C 264.973 269.698,265.522 270.741,265.379 272.226 C 265.258 273.493,265.357 273.969,265.896 274.698 C 266.671 275.747,266.988 315.925,266.217 315.448 C 265.981 315.302,265.928 315.520,266.050 316.133 C 266.575 318.772,266.568 319.313,265.981 321.250 C 265.643 322.367,265.257 323.914,265.123 324.688 C 264.817 326.462,264.888 326.223,264.296 327.500 C 263.111 330.058,262.573 333.704,262.682 338.438 C 262.787 343.059,262.562 344.686,261.383 347.813 C 260.996 348.840,260.791 350.784,260.623 355.024 C 260.459 359.174,260.256 361.133,259.911 361.899 C 259.645 362.487,259.358 363.970,259.272 365.194 C 259.175 366.581,258.866 367.911,258.452 368.722 C 257.917 369.771,257.787 370.585,257.787 372.903 C 257.786 375.943,257.501 377.487,256.562 379.531 C 255.289 382.306,254.868 385.192,254.943 390.625 C 255.011 395.519,254.806 397.267,253.908 399.453 C 253.698 399.963,254.090 400.000,259.654 400.000 C 264.216 400.000,265.628 399.908,265.637 399.609 C 265.690 397.857,267.001 391.940,267.592 390.791 C 268.081 389.838,268.737 385.686,268.744 383.497 C 268.748 382.086,268.853 381.589,269.111 381.749 C 269.369 381.908,269.417 381.693,269.278 380.998 C 269.171 380.463,269.223 379.938,269.394 379.832 C 269.564 379.727,269.678 379.475,269.647 379.273 C 269.615 379.071,269.693 378.625,269.821 378.281 C 270.576 376.249,271.109 375.092,271.513 374.609 C 271.766 374.309,271.863 374.062,271.729 374.063 C 271.595 374.063,271.660 373.853,271.872 373.597 C 272.085 373.341,272.356 373.192,272.476 373.266 C 272.596 373.340,272.729 372.108,272.773 370.529 C 272.879 366.644,273.035 365.469,273.867 362.269 C 274.259 360.763,274.614 358.572,274.656 357.399 C 274.698 356.226,274.799 354.960,274.881 354.586 C 274.963 354.212,275.098 353.203,275.182 352.344 C 275.265 351.484,275.410 350.359,275.504 349.844 C 275.597 349.328,275.791 346.586,275.934 343.750 C 276.122 340.037,276.373 338.025,276.830 336.563 C 277.410 334.708,277.430 334.361,277.051 332.569 C 276.522 330.067,276.647 327.730,277.494 324.304 C 278.285 321.105,278.346 311.583,277.578 311.328 C 277.281 311.229,277.187 309.492,277.188 304.057 C 277.188 297.036,276.959 295.093,276.168 295.397 C 275.865 295.514,275.800 293.751,275.869 287.313 C 275.955 279.303,275.940 279.069,275.317 278.681 C 274.467 278.151,274.320 251.129,275.169 251.454 C 275.420 251.551,275.625 251.470,275.625 251.276 C 275.625 251.081,275.977 250.788,276.406 250.625 C 277.400 250.247,277.557 248.715,276.583 248.902 C 276.250 248.966,275.793 248.791,275.567 248.512 C 275.224 248.089,275.227 248.048,275.587 248.265 C 275.886 248.444,275.974 248.391,275.873 248.090 C 275.734 247.677,275.572 247.620,274.297 247.536 C 273.865 247.508,273.750 247.213,273.750 246.127 C 273.750 245.195,273.599 244.697,273.281 244.574 C 273.023 244.476,272.813 244.137,272.813 243.822 C 272.813 243.508,272.637 243.061,272.422 242.829 C 272.109 242.492,272.109 242.452,272.422 242.629 C 272.637 242.750,272.813 242.700,272.813 242.518 C 272.813 242.336,272.522 242.188,272.168 242.188 C 271.628 242.188,271.539 242.021,271.621 241.172 C 271.704 240.310,271.608 240.141,270.988 240.053 C 270.392 239.968,270.292 239.813,270.443 239.212 C 270.577 238.676,270.444 238.346,269.958 238.006 C 269.402 237.616,269.317 237.322,269.456 236.279 C 269.597 235.233,269.526 234.991,269.031 234.834 C 268.509 234.668,268.277 234.120,268.403 233.351 C 268.425 233.217,268.231 233.026,267.972 232.927 C 267.712 232.827,267.500 232.624,267.500 232.476 C 267.500 232.328,267.690 232.280,267.923 232.369 C 268.250 232.495,268.359 232.053,268.404 230.433 C 268.446 228.908,268.608 228.198,268.996 227.839 C 269.436 227.432,269.515 226.873,269.439 224.693 C 269.364 222.508,269.439 221.976,269.869 221.662 C 270.306 221.342,270.382 220.745,270.334 217.984 C 270.298 215.843,270.393 214.688,270.608 214.688 C 270.789 214.688,270.949 214.441,270.962 214.141 C 270.977 213.814,271.050 213.751,271.144 213.984 C 271.570 215.038,271.709 214.045,271.609 210.670 C 271.504 207.122,271.527 206.957,272.156 206.793 C 272.768 206.633,272.813 206.408,272.813 203.488 C 272.812 200.622,272.866 200.338,273.442 200.155 C 273.788 200.045,273.978 199.804,273.864 199.620 C 273.728 199.399,273.948 199.340,274.507 199.447 C 275.119 199.564,275.458 199.445,275.722 199.023 C 275.958 198.645,276.449 198.438,277.106 198.438 C 277.667 198.438,278.125 198.289,278.125 198.107 C 278.125 197.925,277.963 197.876,277.764 197.999 C 277.541 198.137,277.488 198.084,277.626 197.861 C 277.751 197.660,278.602 197.500,279.550 197.500 C 281.042 197.500,281.250 197.423,281.250 196.875 C 281.250 196.345,281.458 196.250,282.623 196.250 C 283.555 196.250,284.053 196.099,284.176 195.781 C 284.288 195.487,284.766 195.313,285.459 195.313 C 286.354 195.313,286.563 195.195,286.563 194.688 C 286.563 194.148,286.771 194.063,288.092 194.063 C 289.162 194.062,289.675 193.922,289.801 193.594 C 289.899 193.336,290.196 193.125,290.459 193.125 C 290.722 193.125,290.938 192.989,290.938 192.822 C 290.938 192.656,291.148 192.601,291.406 192.699 C 291.709 192.815,291.875 192.693,291.875 192.353 C 291.875 191.944,292.135 191.839,293.047 191.881 C 293.691 191.911,294.359 191.905,294.531 191.868 C 294.703 191.831,294.944 191.816,295.067 191.834 C 295.190 191.853,295.210 191.658,295.112 191.403 C 294.990 191.085,295.134 190.938,295.566 190.938 C 296.586 190.938,297.188 190.597,297.188 190.020 C 297.188 189.464,299.012 189.254,299.394 189.766 C 299.490 189.895,299.871 189.719,300.240 189.375 C 300.654 188.990,301.343 188.750,302.037 188.750 C 302.685 188.750,303.082 188.621,302.974 188.447 C 302.871 188.280,303.179 188.049,303.659 187.935 C 304.139 187.820,304.734 187.570,304.982 187.379 C 305.325 187.114,305.377 187.124,305.198 187.422 C 305.069 187.637,305.112 187.813,305.294 187.813 C 305.476 187.813,305.625 187.563,305.625 187.257 C 305.625 186.804,305.841 186.723,306.803 186.815 C 307.695 186.900,308.124 186.769,308.570 186.276 C 308.894 185.918,309.407 185.625,309.710 185.625 C 310.586 185.625,311.250 185.281,311.250 184.828 C 311.250 184.528,311.645 184.434,312.641 184.495 C 313.407 184.542,313.967 184.473,313.886 184.343 C 313.806 184.212,313.885 184.016,314.063 183.906 C 314.240 183.797,314.322 183.605,314.246 183.481 C 314.169 183.357,314.569 183.310,315.134 183.376 C 315.979 183.474,316.193 183.375,316.339 182.817 C 316.495 182.222,316.702 182.149,318.002 182.229 C 318.959 182.288,319.532 182.185,319.613 181.941 C 319.683 181.733,320.185 181.562,320.729 181.562 C 321.322 181.562,322.068 181.262,322.589 180.813 C 323.137 180.342,323.694 180.126,324.092 180.230 C 324.558 180.352,324.772 180.212,324.906 179.700 C 325.051 179.145,325.265 179.030,325.965 179.133 C 326.447 179.204,326.771 179.147,326.684 179.006 C 326.597 178.865,326.690 178.750,326.890 178.750 C 327.090 178.750,327.185 178.570,327.101 178.351 C 326.999 178.083,327.220 177.965,327.771 177.992 C 328.821 178.045,329.420 177.825,329.199 177.467 C 329.103 177.313,329.289 177.188,329.610 177.188 C 329.932 177.188,330.512 176.892,330.899 176.531 C 331.316 176.143,331.850 175.940,332.208 176.033 C 332.540 176.120,332.813 176.056,332.813 175.890 C 332.813 175.724,332.953 175.675,333.125 175.781 C 333.297 175.887,333.438 175.755,333.438 175.487 C 333.438 175.066,334.197 174.824,335.078 174.963 C 335.207 174.983,335.313 174.746,335.313 174.435 C 335.313 173.972,335.542 173.882,336.584 173.935 C 337.530 173.983,337.814 173.893,337.696 173.585 C 337.510 173.099,338.232 172.398,338.570 172.737 C 338.698 172.865,338.755 172.758,338.698 172.500 C 338.629 172.188,338.881 171.998,339.453 171.932 C 339.926 171.878,340.313 171.694,340.313 171.523 C 340.313 171.353,340.475 171.313,340.673 171.436 C 340.898 171.575,340.949 171.522,340.809 171.296 C 340.503 170.800,341.904 170.282,342.422 170.699 C 342.812 171.013,342.856 170.973,342.930 170.234 C 342.951 170.020,343.320 169.795,343.750 169.736 C 344.663 169.609,345.373 169.101,345.148 168.736 C 345.061 168.596,345.154 168.379,345.356 168.255 C 345.584 168.113,345.638 168.164,345.499 168.389 C 345.365 168.605,345.479 168.750,345.781 168.750 C 346.059 168.750,346.201 168.611,346.096 168.441 C 345.987 168.264,346.111 168.211,346.387 168.317 C 346.672 168.426,346.949 168.296,347.062 168.001 C 347.185 167.680,347.628 167.500,348.297 167.500 C 349.180 167.500,349.320 167.402,349.216 166.859 C 349.116 166.343,349.212 166.255,349.702 166.411 C 350.273 166.592,350.481 166.297,350.337 165.509 C 350.309 165.359,350.511 165.322,350.785 165.427 C 351.058 165.532,351.203 165.489,351.105 165.331 C 351.007 165.172,351.070 164.955,351.245 164.847 C 351.420 164.739,351.563 164.324,351.563 163.924 C 351.563 163.449,351.790 163.139,352.219 163.026 C 352.580 162.932,352.787 162.712,352.679 162.537 C 352.571 162.362,352.772 162.064,353.125 161.875 C 353.478 161.686,353.679 161.388,353.571 161.213 C 353.459 161.032,353.620 160.938,353.946 160.995 C 354.516 161.094,354.575 160.974,354.648 159.568 C 354.673 159.093,354.926 158.761,355.344 158.651 C 355.705 158.557,355.914 158.339,355.808 158.168 C 355.702 157.996,355.779 157.754,355.981 157.630 C 356.209 157.488,356.263 157.539,356.124 157.764 C 356.001 157.963,356.034 158.125,356.198 158.125 C 356.627 158.125,356.860 157.354,356.661 156.593 C 356.502 155.984,356.798 155.769,357.601 155.908 C 357.743 155.933,357.785 155.834,357.695 155.688 C 357.522 155.408,358.603 154.333,358.830 154.560 C 358.904 154.633,358.951 154.235,358.935 153.675 C 358.912 152.872,359.027 152.666,359.475 152.703 C 359.819 152.732,359.983 152.593,359.890 152.351 C 359.686 151.820,360.278 151.256,360.819 151.464 C 361.056 151.555,361.250 151.454,361.250 151.240 C 361.250 151.025,361.496 150.648,361.797 150.402 C 362.131 150.128,362.162 150.041,361.875 150.179 C 361.495 150.362,361.480 150.325,361.797 149.983 C 362.012 149.752,362.188 149.224,362.188 148.810 C 362.188 148.259,362.317 148.108,362.672 148.244 C 362.939 148.347,363.076 148.298,362.976 148.137 C 362.877 147.976,363.069 147.697,363.403 147.518 C 363.738 147.339,364.107 146.760,364.223 146.231 C 364.339 145.703,364.632 145.194,364.873 145.102 C 365.115 145.009,365.313 144.737,365.313 144.498 C 365.313 144.258,365.602 144.063,365.956 144.063 C 366.332 144.063,366.514 143.924,366.393 143.729 C 366.280 143.546,366.448 143.184,366.766 142.925 C 367.097 142.654,367.144 142.540,366.875 142.656 C 366.568 142.789,366.595 142.704,366.953 142.411 C 367.254 142.164,367.500 141.732,367.500 141.450 C 367.500 141.168,367.719 140.938,367.987 140.938 C 368.255 140.938,368.387 140.797,368.281 140.625 C 368.175 140.453,368.218 140.313,368.376 140.313 C 368.534 140.313,368.595 139.955,368.512 139.518 C 368.428 139.081,368.483 138.747,368.633 138.774 C 369.461 138.925,369.589 138.676,369.446 137.188 C 369.310 135.780,369.358 135.625,369.925 135.625 C 370.491 135.625,370.539 135.469,370.407 134.063 C 370.265 132.549,370.399 132.316,371.328 132.463 C 371.588 132.504,371.661 132.076,371.575 131.016 C 371.524 130.387,371.845 130.155,372.593 130.280 C 372.730 130.304,372.819 130.144,372.790 129.927 C 372.658 128.916,372.837 126.853,373.047 126.980 C 373.500 127.255,373.906 126.393,373.906 125.156 C 373.906 124.284,374.031 123.932,374.320 123.992 C 374.548 124.039,374.645 123.934,374.536 123.758 C 374.427 123.582,374.453 123.438,374.593 123.438 C 374.733 123.438,374.796 122.784,374.733 121.986 C 374.629 120.676,374.677 120.549,375.224 120.692 C 375.757 120.832,375.838 120.665,375.901 119.300 C 375.947 118.272,376.176 117.531,376.579 117.097 C 376.914 116.738,377.185 116.225,377.183 115.957 C 377.179 115.528,377.141 115.525,376.875 115.938 C 376.645 116.293,376.571 116.305,376.567 115.986 C 376.565 115.755,376.840 115.494,377.180 115.405 C 377.753 115.255,377.931 114.763,378.228 112.500 C 378.262 112.242,378.496 112.031,378.748 112.031 C 379.095 112.031,379.183 111.704,379.109 110.684 C 379.036 109.669,379.159 109.205,379.605 108.809 C 380.235 108.248,380.667 104.744,380.060 105.119 C 379.667 105.362,379.104 104.671,378.967 103.778 C 378.908 103.391,378.688 102.967,378.477 102.837 C 378.267 102.707,378.067 102.113,378.033 101.518 C 377.985 100.677,377.839 100.439,377.377 100.452 C 377.050 100.461,376.722 100.258,376.648 100.000 C 376.530 99.583,376.552 99.583,376.846 100.000 C 377.108 100.371,377.179 100.256,377.183 99.453 C 377.187 98.464,376.798 98.116,376.403 98.755 C 376.059 99.313,375.741 98.818,375.809 97.830 C 375.846 97.304,375.746 96.794,375.589 96.696 C 375.431 96.599,375.382 96.390,375.480 96.232 C 375.578 96.074,375.439 96.028,375.172 96.131 C 374.733 96.299,374.494 95.602,374.650 94.609 C 374.671 94.480,374.512 94.410,374.297 94.453 C 374.071 94.498,373.862 94.137,373.801 93.594 C 373.743 93.078,373.497 92.544,373.254 92.406 C 373.000 92.262,372.810 91.666,372.808 91.000 C 372.804 90.138,372.726 89.963,372.500 90.313 C 372.241 90.713,372.196 90.702,372.192 90.234 C 372.190 89.934,372.038 89.688,371.856 89.688 C 371.665 89.688,371.586 89.299,371.669 88.771 C 371.837 87.705,371.625 87.371,371.071 87.832 C 370.593 88.228,370.298 87.450,370.457 86.209 C 370.546 85.513,370.463 85.413,369.919 85.556 C 369.385 85.695,369.306 85.610,369.453 85.050 C 369.550 84.679,369.499 84.295,369.341 84.197 C 369.182 84.099,369.152 83.853,369.274 83.650 C 369.424 83.400,369.339 83.408,369.008 83.675 C 368.590 84.014,368.520 83.947,368.513 83.206 C 368.495 81.355,368.444 81.181,367.969 81.363 C 367.629 81.493,367.500 81.327,367.500 80.758 C 367.500 80.327,367.224 79.677,366.886 79.315 C 366.548 78.952,366.337 78.549,366.417 78.419 C 366.498 78.290,366.282 78.257,365.938 78.347 C 365.341 78.503,365.109 78.027,365.298 77.031 C 365.330 76.859,365.179 76.894,364.962 77.107 C 364.434 77.626,363.125 76.435,363.125 75.437 C 363.125 75.049,362.914 74.521,362.656 74.263 C 362.398 74.006,362.188 73.644,362.188 73.460 C 362.188 73.276,361.906 73.125,361.563 73.125 C 361.124 73.125,360.936 72.915,360.933 72.422 C 360.929 71.853,360.870 71.808,360.625 72.188 C 360.401 72.534,360.321 72.548,360.317 72.243 C 360.311 71.719,359.513 70.904,359.256 71.161 C 359.150 71.267,359.063 71.129,359.063 70.854 C 359.062 70.580,358.779 70.265,358.433 70.155 C 358.087 70.045,357.871 69.845,357.954 69.711 C 358.037 69.577,357.888 69.200,357.623 68.874 C 357.358 68.548,357.249 68.492,357.381 68.750 C 357.586 69.153,357.546 69.159,357.095 68.793 C 356.806 68.558,356.646 68.242,356.741 68.090 C 356.835 67.937,356.622 67.812,356.268 67.812 C 355.811 67.813,355.624 67.609,355.620 67.109 C 355.617 66.605,355.541 66.524,355.351 66.823 C 355.078 67.254,354.509 66.439,354.651 65.819 C 354.686 65.669,354.458 65.612,354.144 65.694 C 353.666 65.819,353.592 65.685,353.689 64.858 C 353.790 63.992,353.640 63.761,352.449 62.953 C 350.894 61.897,350.593 61.555,350.850 61.139 C 350.959 60.963,350.864 60.946,350.620 61.097 C 350.317 61.284,350.261 61.209,350.412 60.816 C 350.525 60.521,350.499 60.353,350.354 60.443 C 350.209 60.532,349.765 60.259,349.366 59.834 C 348.967 59.410,348.463 59.063,348.245 59.063 C 348.028 59.063,347.749 58.900,347.626 58.702 C 347.488 58.478,347.541 58.426,347.764 58.564 C 347.963 58.687,348.125 58.638,348.125 58.456 C 348.125 58.274,347.914 58.125,347.656 58.125 C 347.398 58.125,347.170 57.984,347.148 57.813 C 347.127 57.641,347.092 57.371,347.070 57.214 C 347.049 57.056,346.903 56.810,346.747 56.667 C 346.583 56.517,346.552 56.563,346.674 56.775 C 346.790 56.978,346.742 57.233,346.568 57.341 C 346.393 57.449,346.250 57.323,346.250 57.061 C 346.250 56.799,345.958 56.428,345.601 56.237 C 345.215 56.031,345.023 55.702,345.128 55.429 C 345.226 55.175,345.195 55.036,345.060 55.119 C 344.577 55.418,344.045 54.780,343.976 53.821 C 343.931 53.194,343.711 52.794,343.359 52.702 C 343.046 52.620,342.802 52.246,342.788 51.826 C 342.774 51.423,342.690 51.275,342.601 51.497 C 342.477 51.806,342.337 51.816,342.004 51.540 C 341.765 51.342,341.646 51.054,341.741 50.902 C 341.835 50.750,341.693 50.625,341.425 50.625 C 341.157 50.625,340.938 50.484,340.938 50.313 C 340.938 50.141,340.703 50.000,340.417 50.000 C 340.130 50.000,339.978 49.918,340.078 49.817 C 340.335 49.561,339.320 48.435,339.007 48.628 C 338.866 48.715,338.732 48.638,338.711 48.456 C 338.689 48.274,338.654 47.961,338.633 47.761 C 338.611 47.560,338.172 47.340,337.656 47.272 C 337.141 47.203,336.427 46.873,336.071 46.539 C 335.714 46.205,335.320 46.034,335.195 46.159 C 335.069 46.285,335.060 46.145,335.173 45.850 C 335.340 45.415,335.200 45.312,334.442 45.313 C 333.897 45.313,333.429 45.116,333.324 44.844 C 333.219 44.570,332.751 44.375,332.197 44.375 C 331.601 44.375,331.250 44.215,331.250 43.945 C 331.250 43.708,331.012 43.321,330.721 43.085 C 330.265 42.715,330.230 42.721,330.469 43.125 C 330.709 43.533,330.675 43.537,330.202 43.153 C 329.903 42.911,329.723 42.545,329.802 42.340 C 329.893 42.104,329.673 41.997,329.206 42.048 C 328.799 42.093,328.157 41.861,327.779 41.533 C 327.166 41.002,326.563 40.938,322.173 40.938 C 318.027 40.938,317.225 40.862,317.069 40.455 C 316.794 39.737,301.679 39.905,301.792 40.625 C 301.855 41.025,301.222 41.087,297.489 41.046 C 293.586 41.004,293.121 41.055,293.196 41.513 C 293.270 41.955,292.922 42.025,290.685 42.019 C 288.445 42.013,288.106 42.082,288.220 42.517 C 288.319 42.897,288.178 42.989,287.649 42.888 C 286.754 42.716,285.625 43.310,285.625 43.953 C 285.625 44.320,285.392 44.412,284.709 44.311 C 284.005 44.208,283.757 44.314,283.638 44.770 C 283.523 45.211,283.256 45.337,282.601 45.260 C 281.879 45.175,281.722 45.274,281.738 45.805 C 281.753 46.317,281.605 46.424,281.035 46.315 C 280.584 46.229,280.313 46.328,280.313 46.578 C 280.313 46.799,280.220 46.887,280.107 46.774 C 279.994 46.660,279.733 46.707,279.528 46.877 C 279.323 47.048,278.783 47.218,278.328 47.255 C 277.872 47.293,277.482 47.434,277.461 47.568 C 277.439 47.703,277.404 47.941,277.383 48.099 C 277.361 48.257,277.216 48.503,277.059 48.646 C 276.893 48.798,276.871 48.739,277.007 48.504 C 277.180 48.204,276.965 48.120,276.165 48.174 C 275.301 48.232,275.098 48.372,275.124 48.889 C 275.150 49.416,274.975 49.527,274.142 49.506 C 273.584 49.493,273.197 49.552,273.283 49.637 C 273.714 50.069,272.400 50.906,271.798 50.584 C 271.429 50.387,271.252 50.376,271.365 50.558 C 271.607 50.949,270.828 51.613,270.267 51.495 C 270.034 51.446,269.887 51.606,269.940 51.850 C 270.017 52.207,269.945 52.218,269.574 51.911 C 269.205 51.604,269.061 51.621,268.853 51.993 C 268.710 52.249,268.171 52.517,267.656 52.588 C 266.921 52.691,266.725 52.870,266.747 53.419 C 266.770 54.018,266.644 54.099,265.869 53.986 C 265.221 53.891,264.841 54.027,264.533 54.467 C 264.238 54.889,263.862 55.034,263.329 54.933 C 262.736 54.819,262.578 54.904,262.653 55.295 C 262.747 55.783,262.323 55.934,260.562 56.040 C 260.269 56.057,260.089 56.131,260.162 56.204 C 260.503 56.545,258.958 58.125,258.282 58.125 C 257.877 58.125,257.359 58.309,257.132 58.533 C 256.477 59.181,255.732 59.357,255.332 58.960 C 255.049 58.679,255.012 58.721,255.171 59.141 C 255.292 59.457,255.234 59.688,255.033 59.688 C 254.843 59.688,254.723 59.863,254.766 60.078 C 254.816 60.331,254.485 60.459,253.828 60.440 C 253.148 60.421,252.813 60.558,252.813 60.853 C 252.813 61.120,252.534 61.272,252.109 61.238 C 250.874 61.138,250.554 61.240,250.723 61.679 C 250.817 61.926,250.566 62.281,250.131 62.513 C 249.715 62.736,249.375 63.105,249.375 63.334 C 249.375 63.819,248.564 63.895,248.281 63.438 C 248.175 63.266,247.921 63.136,247.716 63.150 C 247.445 63.168,247.449 63.217,247.732 63.331 C 248.026 63.450,248.008 63.599,247.656 63.951 C 247.401 64.206,247.029 64.314,246.829 64.190 C 246.587 64.041,246.551 64.103,246.722 64.380 C 246.910 64.684,246.833 64.738,246.432 64.584 C 246.132 64.469,245.810 64.375,245.717 64.375 C 245.625 64.375,245.694 64.199,245.873 63.984 C 246.129 63.676,245.645 63.617,243.567 63.702 C 240.982 63.809,240.770 63.736,240.887 62.774 C 240.900 62.667,239.789 62.608,238.418 62.643 C 236.507 62.691,235.836 62.595,235.541 62.230 C 235.223 61.838,235.238 61.800,235.625 62.015 C 235.969 62.207,235.954 62.127,235.565 61.714 C 235.136 61.258,234.603 61.166,232.716 61.221 C 231.148 61.266,230.255 61.155,229.963 60.879 C 229.648 60.579,228.310 60.469,225.000 60.469 C 221.187 60.469,220.466 60.394,220.455 60.000 C 220.447 59.742,220.271 59.566,220.064 59.609 C 219.857 59.652,219.688 59.547,219.688 59.375 C 219.688 59.177,217.292 59.063,213.125 59.063 C 208.042 59.063,206.580 58.974,206.641 58.672 C 206.769 58.028,165.280 57.948,164.920 58.591 C 164.707 58.972,163.895 59.063,160.688 59.067 C 156.630 59.072,156.094 59.181,156.094 60.000 C 156.094 61.030,151.714 60.809,151.279 59.757 C 150.963 58.995,150.768 58.883,149.963 59.001 C 149.173 59.117,149.034 59.043,149.118 58.554 C 149.189 58.144,149.057 57.996,148.677 58.059 C 148.300 58.122,148.191 58.003,148.320 57.669 C 148.421 57.404,148.340 57.188,148.140 57.188 C 147.939 57.188,147.875 57.012,147.996 56.797 C 148.173 56.484,148.133 56.484,147.796 56.797 C 147.203 57.347,146.658 57.283,145.957 56.582 C 145.544 56.169,145.469 55.927,145.723 55.822 C 145.927 55.737,145.655 55.742,145.118 55.834 C 144.398 55.956,144.029 55.848,143.711 55.422 C 143.475 55.104,142.930 54.844,142.500 54.844 C 142.042 54.844,141.751 54.682,141.797 54.453 C 141.851 54.183,141.400 54.063,140.334 54.063 C 138.974 54.063,138.782 53.980,138.694 53.359 C 138.601 52.709,138.434 52.656,136.471 52.656 C 134.504 52.656,134.334 52.602,134.164 51.923 C 134.063 51.520,133.889 51.337,133.779 51.516 C 133.659 51.709,133.401 51.733,133.145 51.575 C 132.907 51.428,132.504 51.388,132.249 51.486 C 131.993 51.584,131.613 51.429,131.402 51.141 C 131.121 50.757,130.680 50.651,129.738 50.743 C 128.900 50.825,128.333 50.719,128.099 50.437 C 127.902 50.201,127.617 50.084,127.465 50.178 C 127.312 50.272,127.188 50.152,127.188 49.910 C 127.188 49.458,126.074 49.367,125.434 49.766 C 124.983 50.048,124.688 49.736,124.688 48.977 C 124.688 48.557,124.538 48.428,124.203 48.557 C 123.924 48.663,123.799 48.611,123.908 48.434 C 124.026 48.243,123.382 48.125,122.228 48.125 C 121.025 48.125,120.198 47.966,119.912 47.679 C 119.667 47.434,118.989 47.188,118.405 47.133 C 117.821 47.077,117.367 46.891,117.396 46.719 C 117.424 46.547,116.862 46.366,116.146 46.316 C 114.268 46.187,113.798 46.093,113.525 45.792 C 113.391 45.645,113.457 45.626,113.672 45.750 C 113.900 45.881,114.063 45.804,114.063 45.565 C 114.063 45.261,113.572 45.184,112.139 45.265 C 110.624 45.350,110.156 45.267,109.936 44.874 C 109.747 44.536,109.217 44.375,108.299 44.375 C 106.920 44.375,106.298 43.820,106.778 43.019 C 106.897 42.819,106.757 42.849,106.466 43.085 C 106.088 43.392,105.938 43.408,105.938 43.141 C 105.938 42.872,105.151 42.796,103.124 42.868 C 101.028 42.943,100.311 42.869,100.312 42.578 C 100.313 42.093,100.571 42.120,95.234 42.056 C 91.803 42.015,90.801 41.911,90.867 41.603 C 90.914 41.383,90.819 41.287,90.654 41.388 C 90.490 41.490,90.267 41.430,90.159 41.255 C 90.039 41.061,87.973 40.938,84.841 40.938 C 80.727 40.938,79.669 40.850,79.469 40.491 C 79.034 39.714,72.759 39.656,73.006 40.431 M276.796 307.560 C 276.742 309.676,276.697 308.031,276.697 303.906 C 276.697 299.781,276.741 298.051,276.796 300.060 C 276.850 302.070,276.850 305.445,276.796 307.560 " stroke="none" fill="#019606" fill-rule="evenodd"></path></g></svg>
