<?xml version="1.0" encoding="iso-8859-1"?>
<!-- Uploaded to: SVG Repo, www.svgrepo.com, Generator: SVG Repo Mixer Tools -->
<svg fill="#000000" height="800px" width="800px" version="1.1" id="Layer_1" xmlns="http://www.w3.org/2000/svg" xmlns:xlink="http://www.w3.org/1999/xlink" 
	 viewBox="0 0 512 512" xml:space="preserve">
<g>
	<g>
		<path d="M477.728,238.307h-27.654v-79.62c0-53.659-42.579-97.313-96.276-97.313h-8.704c-53.698,0-98.492,43.654-98.492,97.313
			v79.62h-25.438c-19.512,0-36.488,15.914-36.488,35.464v132.544c0,19.551,16.976,35.464,36.488,35.464h256.565
			c19.508,0,34.272-15.914,34.272-35.464V273.771C512,254.22,497.236,238.307,477.728,238.307z M264.294,158.687
			c0-43.905,36.855-79.62,80.799-79.62h8.704c43.94,0,78.583,35.715,78.583,79.62v79.62H264.294V158.687z M494.307,406.315
			L494.307,406.315c0,9.797-6.83,17.771-16.579,17.771H221.163c-9.754,0-18.795-7.974-18.795-17.771V273.771
			c0-9.797,9.041-17.771,18.795-17.771h35.391h185.779h35.395c9.749,0,16.579,7.974,16.579,17.771V406.315z"/>
	</g>
</g>
<g>
	<g>
		<path d="M345.02,273.693c-19.512,0-35.939,15.87-35.939,35.387c0,8.648,3.87,16.976,8.294,23.404v47.369
			c0,4.89,5.067,8.847,9.953,8.847h35.387c4.886,0,7.741-3.957,7.741-8.847v-47.369c6.635-6.427,9.4-14.756,9.4-23.404
			C379.853,289.564,364.532,273.693,345.02,273.693z M356.259,322.272c-1.875,1.685-3.499,4.078-3.499,6.592v42.143h-17.693v-42.143
			c0-2.514-0.518-4.907-2.393-6.592c-3.749-3.361-5.624-8.164-5.624-13.192c0-9.754,8.073-17.693,17.831-17.693
			c9.758,0,17.486,7.939,17.486,17.693C362.367,314.108,360.009,318.911,356.259,322.272z"/>
	</g>
</g>
<g>
	<g>
		<path d="M79.621,105.607c-39.024,0-70.773,31.749-70.773,70.773c0,24.691,12.566,46.791,32.346,59.516L6.049,247.611
			c-3.274,1.089-5.62,3.991-5.996,7.421c-0.376,3.438,1.279,6.773,4.242,8.553l28.942,17.365L5.56,292.017
			c-3.119,1.253-5.261,4.155-5.529,7.507c-0.272,3.352,1.382,6.566,4.263,8.294l30.415,18.246l-20.972,10.488
			c-2.998,1.503-4.89,4.562-4.89,7.914s1.892,6.41,4.89,7.914l17.767,8.881L5.56,371.637c-3.119,1.253-5.261,4.156-5.529,7.508
			c-0.272,3.352,1.382,6.566,4.263,8.294l42.747,25.65l25.503,33.996c1.538,2.056,3.892,3.335,6.449,3.516
			c0.207,0.017,0.419,0.026,0.627,0.026c2.337,0,4.592-0.924,6.255-2.592l34.834-35.387c1.659-1.659,2.039-3.905,2.039-6.255
			V231.629c17.693-13.382,27.093-33.702,27.093-55.248C149.841,137.357,118.644,105.607,79.621,105.607z M109.396,219.948
			c-2.376,1.659-4.341,4.363-4.341,7.257V402.73l-25.028,25.581L59.88,401.088c-0.687-0.916-1.404-1.693-2.384-2.281l-28.873-17.365
			l27.711-11.067c3.231-1.296,5.425-4.371,5.568-7.844c0.147-3.482-1.758-6.73-4.872-8.285l-19.56-9.78l19.566-9.78
			c2.886-1.443,4.761-4.345,4.882-7.577c0.125-3.222-1.516-6.263-4.284-7.922l-28.942-17.365l27.676-11.067
			c3.119-1.253,5.261-4.155,5.529-7.508c0.272-3.352-1.382-6.566-4.263-8.294l-27.741-16.648l34.834-11.611
			c0.393-0.13,0.778-0.285,1.149-0.475l3.343-1.667c3.33-1.659,5.266-5.227,4.842-8.924c-0.427-3.698-3.123-6.739-6.747-7.594
			c-24.004-5.702-40.773-26.946-40.773-51.654c0-29.27,23.81-53.08,53.08-53.08c29.27,0,52.803,23.81,52.803,53.08
			C132.424,193.728,123.642,210.013,109.396,219.948z"/>
	</g>
</g>
<g>
	<g>
		<path d="M88.468,140.994c-9.758,0-17.693,7.939-17.693,17.693c0,9.754,7.935,17.693,17.693,17.693s17.693-7.939,17.693-17.693
			C106.161,148.933,98.225,140.994,88.468,140.994z"/>
	</g>
</g>
<g>
	<g>
		<path d="M87.362,264.847c-4.886,0-8.847,3.957-8.847,8.847v88.466c0,4.89,3.961,8.847,8.847,8.847s8.847-3.957,8.847-8.847
			v-88.466C96.208,268.804,92.247,264.847,87.362,264.847z"/>
	</g>
</g>
</svg>